# xmcd
#
# Track frame offsets: 
#        150
#        20439
#        47464
#        72885
#        97669
#        119649
#        141234
#
# Disc length: 2181 seconds
#
# Revision: 0
# Processed by: cddbd v1.5.2PL0 Copyright (c) Steve Scherf et al.
# Submitted via: ExactAudioCopy v1.2
#
DISCID=57088307
DTITLE=Robert Cray - Live In ’90 [Remastered]
DYEAR=2017
DGENRE=Blues
TTITLE0=Phone Booth (Live)
TTITLE1=These Things (Live)
TTITLE2=Where Do I Go From Here (Live)
TTITLE3=Right Next Door (Because Of Me) (Live)
TTITLE4=Consequences (Live)
TTITLE5=Smokin’ Gun (Live)
TTITLE6=Nothing But A Woman (Live)
EXTD=
EXTT0=
EXTT1=
EXTT2=
EXTT3=
EXTT4=
EXTT5=
EXTT6=
PLAYORDER=
